<svg width="24" height="24" viewBox="0 0 24 24" fill="none" xmlns="http://www.w3.org/2000/svg">
<path d="M5.51856 11.3891C4.64844 11.0751 3.69336 11.3256 3.11426 11.932C2.67774 12.3676 2.4375 12.9472 2.4375 13.5644C2.4375 14.1815 2.67773 14.7616 3.11328 15.1972L8.78906 20.8734C9.21484 21.3163 9.80176 21.56 10.4404 21.56C11.0537 21.56 11.6318 21.3217 12.0586 20.8964C12.6982 20.2724 12.915 19.3241 12.6113 18.4813L11.9053 16.5185L13.5772 14.8476L16.8164 18.9013C17.3701 19.5995 18.1992 19.9999 19.0898 19.9999C19.8486 19.9999 20.5947 19.6889 21.1367 19.1469C22.0264 18.2577 22.2461 16.9057 21.6846 15.7831L18.6768 9.75772L20.9473 7.48672C21.5361 6.89785 21.8604 6.11074 21.8604 5.26992C21.8604 4.42959 21.5361 3.64199 20.9473 3.05215C19.7305 1.83731 17.7432 1.83584 16.5127 3.05264L14.2422 5.32364L8.21192 2.31827C7.09962 1.75284 5.7461 1.97061 4.85157 2.86368C4.30274 3.41397 4.00001 4.14444 4.00001 4.91983C4.00001 5.81094 4.4004 6.64004 5.09571 7.19131L9.14356 10.4247L7.48047 12.0941L5.51856 11.3891ZM8.44825 13.9555L11.3477 11.0453C11.5488 10.8441 11.6543 10.5668 11.6377 10.2831C11.6221 9.99942 11.4863 9.73575 11.2637 9.5585L6.34083 5.62686C6.12403 5.4545 6.00001 5.19718 6.00001 4.91983C6.00001 4.67764 6.09474 4.44913 6.26661 4.27725C6.54102 4.00235 6.96876 3.92911 7.31349 4.10489L13.9942 7.43497C14.3779 7.62735 14.8438 7.55216 15.1475 7.24698L17.9229 4.4711C18.3691 4.02872 19.0908 4.02676 19.5332 4.46622C19.8037 4.7377 19.8604 5.05313 19.8604 5.26993C19.8604 5.57657 19.7441 5.86173 19.5332 6.07266L16.7529 8.85293C16.4482 9.15713 16.3731 9.62197 16.5654 10.0067L19.8955 16.6771C20.0713 17.0292 20.002 17.453 19.7227 17.7328C19.3477 18.1088 18.7051 18.0629 18.3809 17.6552L14.4414 12.7255C14.2637 12.5033 14 12.3676 13.7158 12.3515C13.4375 12.3388 13.1553 12.4418 12.9531 12.643L10.043 15.5526C9.76953 15.8261 9.67774 16.2333 9.80859 16.598L10.7295 19.1596C10.7666 19.2636 10.7393 19.3886 10.6543 19.4716C10.5586 19.5678 10.4141 19.6752 10.2168 19.473L4.52734 13.7826C4.44921 13.7045 4.4375 13.6127 4.4375 13.5648C4.4375 13.517 4.44922 13.4257 4.54297 13.3314C4.58985 13.2821 4.66798 13.2499 4.74024 13.2499C4.76661 13.2499 4.80469 13.2577 4.8418 13.2709L7.40235 14.1908C7.76661 14.3236 8.17481 14.2309 8.44825 13.9555Z" fill="#EAEBEC"/>
</svg>
