<svg width="16" height="16" viewBox="0 0 16 16" fill="none" xmlns="http://www.w3.org/2000/svg">
<path d="M11.5341 7.00002H15.4661C15.5136 7.00004 15.5601 7.01359 15.6002 7.03909C15.6403 7.06459 15.6723 7.10098 15.6924 7.144C15.7125 7.18702 15.72 7.23489 15.7139 7.282C15.7079 7.32912 15.6885 7.37352 15.6581 7.41002L13.6921 9.77002C13.6686 9.79816 13.6393 9.82079 13.6061 9.83633C13.5729 9.85186 13.5367 9.85991 13.5001 9.85991C13.4635 9.85991 13.4273 9.85186 13.3941 9.83633C13.3609 9.82079 13.3315 9.79816 13.3081 9.77002L11.3421 7.41002C11.3117 7.37352 11.2923 7.32912 11.2862 7.282C11.2802 7.23489 11.2876 7.18702 11.3078 7.144C11.3279 7.10098 11.3599 7.06459 11.4 7.03909C11.4401 7.01359 11.4866 7.00004 11.5341 7.00002ZM0.534086 9.00002H4.46609C4.51359 9.00001 4.56011 8.98645 4.60019 8.96096C4.64027 8.93546 4.67225 8.89907 4.6924 8.85605C4.71254 8.81303 4.72002 8.76516 4.71394 8.71804C4.70786 8.67093 4.68849 8.62653 4.65809 8.59002L2.69209 6.23002C2.66862 6.20189 2.63926 6.17925 2.60609 6.16372C2.57291 6.14819 2.53672 6.14014 2.50009 6.14014C2.46345 6.14014 2.42726 6.14819 2.39409 6.16372C2.36091 6.17925 2.33155 6.20189 2.30809 6.23002L0.342086 8.59002C0.311684 8.62653 0.29231 8.67093 0.286234 8.71804C0.280157 8.76516 0.287629 8.81303 0.307775 8.85605C0.327921 8.89907 0.359907 8.93546 0.399987 8.96096C0.440067 8.98645 0.486583 9.00001 0.534086 9.00002Z" fill="#FFFEFF"/>
<path fill-rule="evenodd" clip-rule="evenodd" d="M8.00001 3.00023C6.44801 3.00023 5.06001 3.70723 4.14301 4.81823C4.10206 4.87131 4.05086 4.9156 3.99245 4.94849C3.93404 4.98138 3.86961 5.00219 3.803 5.00968C3.73638 5.01717 3.66895 5.01119 3.60469 4.99209C3.54043 4.97299 3.48068 4.94117 3.42897 4.89851C3.37726 4.85586 3.33465 4.80324 3.30368 4.74379C3.27272 4.68434 3.25402 4.61926 3.24871 4.55244C3.24339 4.48562 3.25157 4.41841 3.27275 4.35481C3.29394 4.29121 3.32769 4.23252 3.37201 4.18223C4.1042 3.29576 5.0756 2.63824 6.17067 2.28789C7.26575 1.93753 8.43841 1.90908 9.54918 2.20592C10.66 2.50276 11.6621 3.1124 12.4364 3.96232C13.2107 4.81224 13.7246 5.86669 13.917 7.00023H12.9C12.6695 5.87087 12.0558 4.85584 11.1629 4.12693C10.27 3.39802 9.15266 3 8.00001 3.00023ZM3.10001 9.00023C3.28932 9.92486 3.73636 10.7771 4.38949 11.4584C5.04261 12.1397 5.87517 12.6223 6.79097 12.8505C7.70677 13.0787 8.66845 13.0431 9.5649 12.7479C10.4613 12.4527 11.256 11.9099 11.857 11.1822C11.898 11.1292 11.9492 11.0849 12.0076 11.052C12.066 11.0191 12.1304 10.9983 12.197 10.9908C12.2636 10.9833 12.3311 10.9893 12.3953 11.0084C12.4596 11.0275 12.5193 11.0593 12.5711 11.102C12.6228 11.1446 12.6654 11.1972 12.6963 11.2567C12.7273 11.3161 12.746 11.3812 12.7513 11.448C12.7566 11.5148 12.7484 11.5821 12.7273 11.6457C12.7061 11.7093 12.6723 11.7679 12.628 11.8182C11.8958 12.7047 10.9244 13.3622 9.82934 13.7126C8.73427 14.0629 7.56161 14.0914 6.45083 13.7945C5.34006 13.4977 4.33791 12.8881 3.5636 12.0381C2.78928 11.1882 2.27538 10.1338 2.08301 9.00023H3.10001Z" fill="#FFFEFF"/>
</svg>
